<svg xmlns="http://www.w3.org/2000/svg" xml:space="preserve" width="168.39999" height="140.60001" viewBox="0 0 168.39999 140.6"><defs><clipPath id="a" clipPathUnits="userSpaceOnUse"><path d="M0 841.89h595.28V0H0Z"/></clipPath><clipPath id="b" clipPathUnits="userSpaceOnUse"><path d="M129.123 686.609c-7.305-26.174 11.755-47.393 42.556-47.393 30.744 0 61.568 21.133 68.947 47.245h-27.007a42.48 42.48 0 0 0-3.057-4.905c-1.76-2.557-3.868-4.944-6.25-7.103-10.027-9.47-24.44-15.86-38.944-16.169-23.22-.496-37.883 14.771-32.749 34.109 1.525 5.753 4.641 11.215 8.865 16.066-5.829-6.536-10.167-13.968-12.361-21.85"/></clipPath><clipPath id="d" clipPathUnits="userSpaceOnUse"><path d="M145.094 712.215a69.315 69.315 0 0 1-3.61-3.756c-4.224-4.851-7.34-10.313-8.865-16.066-5.134-19.338 9.529-34.605 32.749-34.109 14.504.309 28.917 6.699 38.944 16.169-7.83-7.12-18.547-11.775-29.006-11.775-17.01 0-26.884 12.308-22.054 27.494 4.119 12.948 17.6 23.801 32.03 26.716l5.667 16.742c-17.244-1.798-33.925-9.896-45.855-21.415"/></clipPath><linearGradient id="c" x1="0" x2="1" y1="0" y2="0" gradientTransform="translate(240.626 673.837) scale(-113.23434 113.23434)" gradientUnits="userSpaceOnUse" spreadMethod="pad"><stop offset="0" style="stop-opacity:1;stop-color:#e60013"/><stop offset="0.199997" style="stop-opacity:1;stop-color:#e60013"/><stop offset="0.399994" style="stop-opacity:1;stop-color:#d80010"/><stop offset="0.699997" style="stop-opacity:1;stop-color:#b60007"/><stop offset="1" style="stop-opacity:1;stop-color:#b60007"/></linearGradient><linearGradient id="e" x1="0" x2="1" y1="0" y2="0" gradientTransform="matrix(0 -74.72267 -74.72267 0 167.953 733.63)" gradientUnits="userSpaceOnUse" spreadMethod="pad"><stop offset="0" style="stop-opacity:1;stop-color:#e6001a"/><stop offset="0.199997" style="stop-opacity:1;stop-color:#e6001a"/><stop offset="0.399994" style="stop-opacity:1;stop-color:#d80010"/><stop offset="0.699997" style="stop-opacity:1;stop-color:#b60007"/><stop offset="1" style="stop-opacity:1;stop-color:#e4d7d3"/></linearGradient></defs><g clip-path="url(#b)" transform="matrix(1.48816 0 0 -1.48816 -189.835 1091.756)"><path d="M129.123 686.609c-7.305-26.174 11.755-47.393 42.556-47.393 30.744 0 61.568 21.133 68.947 47.245h-27.007a42.48 42.48 0 0 0-3.057-4.905c-1.76-2.557-3.868-4.944-6.25-7.103-10.027-9.47-24.44-15.86-38.944-16.169-23.22-.496-37.883 14.771-32.749 34.109 1.525 5.753 4.641 11.215 8.865 16.066-5.829-6.536-10.167-13.968-12.361-21.85" style="fill:url(#c);stroke:none"/></g><g clip-path="url(#d)" transform="matrix(1.48816 0 0 -1.48816 -189.835 1091.756)"><path d="M145.094 712.215a69.315 69.315 0 0 1-3.61-3.756c-4.224-4.851-7.34-10.313-8.865-16.066-5.134-19.338 9.529-34.605 32.749-34.109 14.504.309 28.917 6.699 38.944 16.169-7.83-7.12-18.547-11.775-29.006-11.775-17.01 0-26.884 12.308-22.054 27.494 4.119 12.948 17.6 23.801 32.03 26.716l5.667 16.742c-17.244-1.798-33.925-9.896-45.855-21.415" style="fill:url(#e);stroke:none"/></g></svg>